<svg  viewBox="0 0 68 35" fill="none" xmlns="http://www.w3.org/2000/svg">
<path d="M64.462 31.1253L58.4029 30.09L58.4286 29.2908L64.228 29.074L64.08 27.5469H56.6249L56.2429 31.3809L62.405 32.4615L62.434 33.1668L56.0215 33.4192L55.8642 34.9463H64.838L64.462 31.1253ZM6.56731 30.5526L6.47421 31.9374L8.68231 32.0118L8.65341 33.416L4.03501 33.2801L4.23721 29.2196L10.5887 29.0708L10.4956 27.5437H2.29231L1.55731 34.9431H10.9032L10.6625 30.4815L6.56731 30.5526ZM46.1332 33.2704L46.0883 31.9956L50.4595 31.9439L50.5013 30.5526L46.0369 30.4976L45.992 29.2067L51.8749 29.0676L51.923 27.5437H43.9893L43.7518 34.9431H52.0707L52.0129 33.416L46.1332 33.2704Z" fill="#E6E6E6"/>
<path d="M39.7274 34.9431L38.9924 27.5437H36.8806L33.8445 31.0703L30.8116 27.5437H28.6998L27.9648 34.9431H30.4457L30.6832 30.145L33.8445 33.416L37.009 30.145L37.2465 34.9431H39.7274Z" fill="#E6E6E6"/>
<path d="M29.2996 0.453735H24.3346L23.882 23.3313H29.8805L29.2996 0.453735Z" fill="#E6E6E6"/>
<path d="M49.4879 0.461792H34.0088L33.4055 23.3296H50.5887L49.4879 0.461792ZM44.6866 18.3536L39.2081 18.5315L39.0252 5.07548L44.754 5.25019L44.6866 18.3536Z" fill="#E6E6E6"/>
<path d="M68 5.4589L67.448 0.453735H52.1935L52.3219 4.91212L57.2035 5.0836L57.7009 23.3313H63.712L61.915 5.2486L68 5.4589Z" fill="#E6E6E6"/>
<path d="M14.6236 23.3313H21.1387L16.8927 13.0621L20.2818 11.1953L17.9646 0.453735H1.33009L0.784485 5.41037L4.50418 5.28419L2.71008 23.3313H8.53209L8.68929 17.5787L12.8841 15.2686L14.6236 23.3313ZM9.03268 5.13213L13.818 4.97036L14.3636 9.52904L8.84018 12.1594L9.03268 5.13213Z" fill="#E6E6E6"/>
<path d="M21.9415 34.9431H24.4545L22.4679 27.5437H16.5721L14.5855 34.9431H17.0985L17.4868 33.0762L21.566 33.128L21.9415 34.9431ZM17.7917 31.6074L18.2956 29.1873L20.7187 29.0773L21.2258 31.5071L17.7917 31.6074Z" fill="#E6E6E6"/>
</svg>
