<svg viewBox="0 0 51 51" fill="none" xmlns="http://www.w3.org/2000/svg">
<path fill-rule="evenodd" clip-rule="evenodd" d="M30.7 0.3C30.4 0.4 30.3 0.3 30.3 0C31.3 0.5 31.5 0.2 32.4 0.3C32.7 0.6 32.7 0.8 32.3 1.1C32.9 1.5 33.2 -0.2 33.7 0.7C33.5 0.8 33.4 0.9 33.2 1C33.3 1.2 37.5 1.2 38.1 1.5C39.1 2 42.6 4.2 42.6 5.1C42.5 5.2 42.3 5.3 42.2 5.4C42.2 5.4 43.8 7.5 43.9 7.7C44.6 8.9 45 9.6 45.5 10.5C46.5 12.4 47.7 14.7 47.3 16.7C48.4 17 48.2 17.6 47.6 18.2C47.6 18.4 48.8 20.1 49 20.9C49.3 21.9 49.4 23.3 49.6 24.6C49.7 25.8 50.4 29.5 49.8 30.6C49.6 31.1 47.6 31.8 47.6 31.9C47.3 32.3 47.5 32.7 47.1 33.1C46.3 33.9 45.9 35.1 45.3 35.9C44.1 37.5 42.9 39 41.4 40.4C38.6 43 36.1 45.4 32.3 47C29.2 48.3 25.4 50.5 21.8 49.4C21.6 49.5 21.4 49.7 21.4 50C21.2 50.1 20.4 49.4 20.1 49.4C20.3 49.7 20.2 49.9 19.9 50C18.4 48.6 13.1 49.5 12.5 46.9C10.9 47.3 11.3 46.5 10.3 45.9C9.9 45.7 7.9 44.5 7.1 44C6.1 43.4 4.9 42.4 4.2 41.6C2.9 40.1 3.7 41.1 4.1 39.3C3.9 38.7 2.6 40.6 2.7 40.5C2.4 40.6 1.3 39.2 1.3 39C2.1 39.1 1.8 39.9 2.3 39.9C3 40 1.8 38.5 2 38.2C2.2 38.5 2.5 38.5 2.7 38.2C3.1 37.5 1.6 37.5 1.4 37.2C1.4 37 1.6 36.8 1.8 36.8C1.7 36.2 0.5 37.1 0.6 36.3C2 35.7 0.1 35.3 0.3 34.6C0.8 35 1.1 34.9 1.2 34.3C0.6 34 0.1 33.3 0 32.9C0 32.6 2.2 35.4 2.6 35.4C2.9 35.4 1.4 33.5 1.3 33.3C2 33.2 2.3 34.2 2.7 33.9C2.7 33.9 1.7 32.2 1.8 32.5C2 32.1 2.2 33 2.6 32.1C2.2 31.8 2.3 32.9 2 31.8C2.1 31.8 2.3 31.7 2.4 31.6C2.2 31.1 1.2 31.7 0.8 31.5C1 31.2 1 30.9 0.6 30.6C0.6 30.6 1.9 31.7 1.9 30.9C1.8 30.7 1.6 30.6 1.4 30.6C1.5 29.6 3.1 31.7 3.1 31.7C3.7 31.6 2.3 29.5 2.4 29.4C2.6 29.3 2.9 29.3 3.1 29.4C3.8 28.6 1.7 29.3 2.5 28.6C3.4 28.4 2.5 28.9 2.3 28C2.8 27.4 2.9 28.1 3 27.1C2.7 27 2.4 26.9 2.2 26.6C2.3 26.4 2.5 26.3 2.8 26.4C2.1 21.7 2 17.4 4.2 13.3C5.4 10.8 7 9.5 9.3 8.2C10.2 7.7 11.2 7 12.1 6.5C12.9 6 14.7 5.4 15.2 4.9C15 4.6 14.7 4.6 14.4 4.8C14.5 4 16.7 3.6 17 3.7C17.3 3.6 18.6 2.2 19.1 1.9C19.8 1.5 20.4 1.3 21.5 1.1C22.4 0.9 25.6 0.1 24.4 0.8C25.3 1.1 25.2 -0.1 25.9 0.7C26.3 0.6 30.7 -0.4 30.7 0.3V0.3ZM35.1 1.5C35.2 1.7 35.4 1.5 35.4 1.3C35.2 1.4 35.1 1.3 35.1 1.5ZM36.1 1.6C36.2 1.7 36.5 1.6 36.4 1.4C36.3 1.3 36.1 1.4 36.1 1.6ZM18.5 2.7C18.7 2.7 18.8 2.6 18.8 2.4C18.6 2.4 18.5 2.5 18.5 2.7ZM41.1 4.6C41.1 4.8 41.6 4.9 41.7 4.6C41.5 4.4 41 4.3 41.1 4.6ZM43.6 8.4C43.8 8.5 43.9 8.3 43.9 8.1C43.7 8 43.5 8.2 43.6 8.4ZM8.5 25.8C8.6 25.8 8.8 25.8 8.8 25.6C8.7 25.5 8.4 25.6 8.5 25.8ZM8.8 26.4C8.9 26.9 9.5 26.3 9.4 26.2C9.2 26.3 9 26.4 8.8 26.4ZM7.8 26.7C7.8 26.7 7.9 26.7 7.8 26.7C8.6 26.9 8.1 26 7.8 26.7ZM8.8 26.9C8.6 26.9 7.1 27 7.1 27.4C7.3 27.8 8.1 27.4 7.6 28C7.9 28.2 8.2 28.2 8.5 28C8.5 27.7 8 28 8 27.7C7.9 27.7 9.8 27 8.8 26.9ZM9.5 27.8L8.6 28.1C9 28.5 9.7 28.1 9.5 27.8ZM10.1 28C10.2 28 10.2 28 10.3 27.9C10.2 27.9 10.1 27.9 10.1 28ZM7.1 28.1C7.2 28.1 7.5 28.3 7.6 28C7.5 27.9 7 27.8 7.1 28.1ZM9.6 28.6C9.2 28.5 9.1 29.1 8.9 29.4C9.3 29.3 10.3 29.1 10.8 28.7C10.4 28.4 10 28.4 9.6 28.6V28.6ZM7.8 28.7C7.7 28.7 6.6 28.6 6.6 29C6.7 29.1 8.7 29.7 8.8 29.4C8.7 28.5 9 29.1 9 28.7C8.6 28.6 8.2 28.6 7.8 28.7ZM9.8 29.3C9.7 30 8.7 29.9 8.6 30.2C8.8 30.4 10.4 30.3 10.4 30.2C10.3 30.3 10.7 29 10.7 29C10.5 29.2 10.2 29.2 9.8 29.3V29.3ZM11.1 29.6C11.2 29.4 11.1 29.3 10.9 29.2C10.9 29.5 10.8 29.6 11.1 29.6ZM11.4 30.1C11.2 29.9 11 29.9 10.8 30.2C10.8 30.2 11.9 31 12 31C12.1 31 12.2 30.2 12.2 30.1H11.4V30.1ZM2.6 32.9C2.5 33.2 3.1 33.4 3.1 33.1C3 32.8 2.7 32.6 2.6 32.9ZM3.3 33.9C3.4 33.9 3.5 33.8 3.5 33.7C3.3 33.5 2.9 33.9 3.3 33.9ZM2.5 34.3C2.4 34.7 3.3 34.6 3.2 34.2C3 34.2 2.7 34.3 2.5 34.3ZM3 35C3 35.5 3.8 35.6 3.8 35H3V35ZM1.1 35.4C1.2 35.5 2.3 36.9 2.2 35.8C2.2 35.7 1.1 34.7 1.1 35.4ZM2.6 36C3.2 36.2 3.4 36.1 3.2 35.5C3 35.7 2.8 35.8 2.6 36ZM9.5 36.6C10.4 36.7 10.6 36.5 10.3 35.8C9.7 35.8 9.4 36 9.5 36.6ZM9 36.3C9 36 8.4 36 8.3 36.3C8.5 36.5 9 36.6 9 36.3ZM1.9 36.9L2.7 36.6C2.3 36.4 2 36.5 1.9 36.9V36.9ZM9.6 36.8C9.3 36.6 9 36.7 8.8 37C9.1 37.3 9.7 37.3 9.6 36.8ZM9.3 37.7C9.4 37.8 10.1 38.3 10.2 38.2C10.2 38.2 9.8 36.3 9.3 37.7ZM9.4 38.5C9.5 38.5 9.6 38.3 9.6 38.1C9.3 38 9.1 38.4 9.4 38.5ZM2.7 38.5C3.1 39.1 3.3 39 3.3 38.2C3.2 38.3 3 38.4 2.7 38.5ZM11.8 39.6C12.3 39.9 12.3 38.9 12.3 38.8C11.8 38.9 11.7 39.1 11.8 39.6ZM8.4 39C8 38.8 8.1 39.5 8.8 39.1C9.6 38.7 8.2 39.1 8.4 39ZM19.5 39.3C19 39.5 19.1 39.7 19.6 39.8C20 39.6 20.1 39.3 19.9 38.9C19.7 38.9 19.5 39 19.5 39.3V39.3ZM17.8 39.6C17.4 40.1 18.5 39.9 18.5 39.6C18.2 39.5 18 39.5 17.8 39.6ZM17.1 39.8C17.3 39.8 17.3 39.7 17.4 39.6C17.2 39.4 16.9 39.6 17.1 39.8ZM8.3 39.8C8.4 39.8 9.9 40.3 9.6 39.6C9.3 39.6 8.3 39.5 8.3 39.8ZM12.4 39.9C12 40.3 12 40.4 12.6 40.2C12.6 39.9 12.2 39.2 12.4 39.9ZM5.5 40.1C4.7 40.2 3.6 40 3.5 41.2C3.8 41.2 4.8 39.5 5.2 40.6C5 40.6 4.8 40.8 4.7 41C5.3 41.7 5.1 40.9 5.5 41.6C6.1 41.4 5.6 40.4 5.5 40.1ZM11 40.3C10.4 40.2 11.5 41 11.7 40.3C11.4 40.1 11.2 40.1 11 40.3ZM9.9 40.5C10.1 40.5 10.1 40.4 10.3 40.4C10.3 40 9.9 40.2 9.9 40.5ZM9.5 40.5C9.6 40.4 9.8 40.5 9.9 40.5C9.9 40.2 9.3 40.2 9.5 40.5ZM11.8 41C11.9 41 11.9 40.9 11.8 40.8C11.9 41 11.8 41 11.8 41ZM9.8 41.1C9.5 41.8 10.2 42 10.7 41.9C10.7 41.8 10.4 40.9 10.4 41C10.3 40.9 10.1 40.9 9.8 41.1ZM11.2 41C10.9 41.4 11 42.7 10.6 43.3C10.6 43.3 13.5 40.7 13.6 41.3C13.4 41.3 10.9 41.4 11.2 41ZM14.6 42C14.2 41.9 13.8 42.1 13.5 42.4C14.1 43.3 14.4 41.6 14.2 43C14.3 43 15.1 43.1 15.3 43.2C15.3 42.1 15.3 42.7 14.6 42ZM16.5 42.3C16.7 42.1 16.5 41.9 16.2 42C16.2 42.2 16.3 42.3 16.5 42.3ZM10.7 42.4C10.7 42.6 11 42.5 11 42.3C10.9 42.3 10.7 42.3 10.7 42.4ZM15.5 42.8C15.9 43.2 16.1 43.1 16.2 42.6C16 42.6 15.7 42.6 15.5 42.8ZM13.7 42.9C13.8 43.1 14.1 42.8 13.8 42.7C13.8 42.8 13.7 42.7 13.7 42.9ZM11.9 43C11.5 43.7 12.6 44.3 12.8 43.6C12.4 43.2 12.5 43.2 11.9 43ZM17 43.2C17 43.6 17.8 43.6 17.9 43.4C17.9 43.2 17.2 43.1 17 43.2ZM14.1 43.6C14.3 43.7 14.6 43.7 14.6 43.4C14.4 43.3 14.1 43.3 14.1 43.6ZM12.9 43.7C13.1 43.7 13.4 43.8 13.4 43.5C13.3 43.4 12.9 43.4 12.9 43.7ZM11.3 43.9C11.3 44.1 11.1 44.8 11.4 44.8C11.9 44.2 11.7 44.5 11.9 43.7C11.7 43.8 11.5 43.9 11.3 43.9ZM14 44.1C14.1 44 14.1 43.9 14 43.8C13.9 43.9 13.8 44 14 44.1ZM16.8 44.1C16.9 44.7 17.3 44.5 17.5 45C17.4 45.1 16.8 45.5 16.8 45.6C18.7 46.2 16.9 43.2 16.8 44.1ZM14.8 44.3C14.9 44.3 15 44.2 15.1 44.2C15.1 43.9 14.8 44.1 14.8 44.3ZM13.1 44.2C13.4 43.8 13 46 13 45.8C14 46.1 14.4 45.7 14.2 44.8C13.3 45 13.7 44.8 13.7 44.1C13.5 44.2 13.3 44.2 13.1 44.2ZM12.4 44.3C12.3 44.6 12.9 44.7 12.9 44.4C12.8 44.1 12.5 44.1 12.4 44.3ZM15 45C15.3 45.1 15.6 44.9 15.7 44.7C15.5 44.5 15.1 44.7 15 45ZM12.3 45.3C12.6 45.5 13.1 45.4 13.1 45C12.9 45.1 12.2 44.8 12.3 45.3ZM15.8 45.8C15.9 45.8 16 45.7 16 45.6C15.9 45.5 15.7 45.7 15.8 45.8ZM14.5 46.6C14.7 46.6 14.8 46.5 14.8 46.3C14.6 46 14.2 46.3 14.5 46.6ZM16.3 46.4C16.4 46.4 16.5 46.5 16.6 46.5C16.7 46.4 16.4 46.3 16.3 46.4Z" class='icon_bg' fill="#E6E6E6"/>
<path fill-rule="evenodd" clip-rule="evenodd" d="M33 18H15V20H33V18ZM15 24V26H35V24H15ZM15 32H29V30H15V32Z" class='icon' fill="#D1363A"/>
</svg>
